<svg width="463.454558134079" height="319.3636422157289" xmlns="http://www.w3.org/2000/svg" xmlns:se="http://svg-edit.googlecode.com" xmlns:xlink="http://www.w3.org/1999/xlink" xmlns:dc="http://purl.org/dc/elements/1.1/" xmlns:cc="http://creativecommons.org/ns#" xmlns:rdf="http://www.w3.org/1999/02/22-rdf-syntax-ns#" xmlns:inkscape="http://www.inkscape.org/namespaces/inkscape" style="">
                                    <title>KChat</title>
                                    <rect id="backgroundrect" width="100%" height="100%" x="0" y="0" fill="#FFFFFF" stroke="none"/>
                                <g style="" class="currentLayer"><title>Layer 1</title><path fill="#4dd656" fill-opacity="1" stroke="#4dd656" stroke-opacity="1" stroke-width="2" stroke-dasharray="none" stroke-linejoin="round" stroke-linecap="butt" stroke-dashoffset="" fill-rule="nonzero" opacity="1" marker-start="" marker-mid="" marker-end="" d="M47.80244445800781,241.8506345152855 C-34.50886535644531,238.817065179348 17.425277709960938,193.0684079527855 179.07455444335938,169.09303563833237 C340.7239074707031,145.1177243590355 483.5823669433594,188.58406347036362 446.2555236816406,227.00911229848862 C408.9288024902344,265.4342069029808 442.1765441894531,318.03335851430893 166.63217163085938,302.05008214712143 C-108.91212463378906,286.0667447447777 130.11370849609375,244.88423436880112 47.80244445800781,241.8506345152855 z" id="svg_4" class=""/><g class="" id="svg_1"><path fill="#479b4b" fill-opacity="1" stroke="#479b4b" stroke-opacity="1" stroke-width="2" stroke-dasharray="none" stroke-linejoin="round" stroke-linecap="butt" stroke-dashoffset="" fill-rule="nonzero" opacity="1" marker-start="" marker-mid="" marker-end="" d="M151.56222534179688,253.30113500356674 C151.56222534179688,239.6335934996605 165.56979370117188,228.5627927184105 182.86288452148438,228.5627927184105 C200.15585327148438,228.5627927184105 214.16342163085938,239.6335934996605 214.16342163085938,253.30113500356674 C214.16342163085938,266.9687528014183 200.15585327148438,278.0395230650902 182.86288452148438,278.0395230650902 C165.56979370117188,278.0395230650902 151.56222534179688,266.9687528014183 151.56222534179688,253.30113500356674 z" class="" id="svg_20"/><path fill="#479b4b" fill-opacity="1" stroke="#479b4b" stroke-opacity="1" stroke-width="2" stroke-dasharray="none" stroke-linejoin="round" stroke-linecap="butt" stroke-dashoffset="" fill-rule="nonzero" opacity="1" marker-start="" marker-mid="" marker-end="" d="M251.51687622070312,253.62135595083237 C251.51687622070312,239.95375341176987 265.5244445800781,228.88295263051987 282.8175354003906,228.88295263051987 C300.1105041503906,228.88295263051987 314.1180114746094,239.95375341176987 314.1180114746094,253.62135595083237 C314.1180114746094,267.28897374868393 300.1105041503906,278.35977452993393 282.8175354003906,278.35977452993393 C265.5244445800781,278.35977452993393 251.51687622070312,267.28897374868393 251.51687622070312,253.62135595083237 z" class="" id="svg_28"/><path fill="#4dd656" fill-opacity="1" stroke="#4dd656" stroke-opacity="1" stroke-width="2" stroke-dasharray="none" stroke-linejoin="round" stroke-linecap="butt" stroke-dashoffset="" fill-rule="nonzero" opacity="1" marker-start="" marker-mid="" marker-end="" d="M230.15585327148438,269.40408605337143 C229.93746948242188,262.52347081899643 237.26748657226562,256.7685117125511 246.53530883789062,256.54432958364487 C255.80307006835938,256.32008641958237 263.4868469238281,261.7117642760277 263.7051696777344,268.5923795104027 C263.9234924316406,275.4729947447777 256.5934753417969,281.2278775572777 247.32571411132812,281.4521207213402 C238.05789184570312,281.6763638854027 230.37417602539062,276.28470128774643 230.15585327148438,269.40408605337143 z" id="svg_32" class=""/><path fill="#4dd656" fill-opacity="1" stroke="#4dd656" stroke-opacity="1" stroke-width="2" stroke-dasharray="none" stroke-linejoin="round" stroke-linecap="butt" stroke-dashoffset="" fill-rule="nonzero" opacity="1" marker-start="" marker-mid="" marker-end="" d="M197.42855834960938,268.4949979186058 C197.21017456054688,261.6143826842308 204.54019165039062,255.8594235777855 213.80801391601562,255.63524144887924 C223.07577514648438,255.41099828481674 230.75955200195312,260.80267614126205 230.97787475585938,267.68329137563705 C231.19619750976562,274.56387609243393 223.86618041992188,280.31875890493393 214.59841918945312,280.54300206899643 C205.33059692382812,280.76724523305893 197.64688110351562,275.3755826354027 197.42855834960938,268.4949979186058 z" class="" id="svg_3"/><path fill="#4dd656" fill-opacity="1" stroke="#4dd656" stroke-opacity="1" stroke-width="2" stroke-dasharray="none" stroke-linejoin="round" stroke-linecap="butt" stroke-dashoffset="" fill-rule="nonzero" opacity="1" marker-start="" marker-mid="" marker-end="" d="M286.9424133300781,226.69063085317612 C290.1275939941406,220.93348973989487 301.7184143066406,220.07106298208237 312.8429870605469,224.76338475942612 C323.9674987792969,229.45570653676987 330.3984680175781,237.91981786489487 327.2132873535156,243.67695897817612 C324.0281677246094,249.43410009145737 312.4373474121094,250.29658788442612 301.3128356933594,245.60420507192612 C290.1882629394531,240.91188329458237 283.7572937011719,232.44777196645737 286.9424133300781,226.69063085317612 z" class="" id="svg_41"/><path fill="#4dd656" fill-opacity="1" stroke="#4dd656" stroke-opacity="1" stroke-width="2" stroke-dasharray="none" stroke-linejoin="round" stroke-linecap="butt" stroke-dashoffset="" fill-rule="nonzero" opacity="1" marker-start="" marker-mid="" marker-end="" d="M145.68154907226562,234.4995602965355 C143.77822875976562,228.325610101223 151.89981079101562,221.0535153746605 163.82974243164062,218.2495602965355 C175.75967407226562,215.44566625356674 186.96456909179688,218.1753415465355 188.86782836914062,224.349291741848 C190.77114868164062,230.5232419371605 182.64956665039062,237.79527562856674 170.71963500976562,240.59923070669174 C158.78970336914062,243.40318578481674 147.58480834960938,240.673510491848 145.68154907226562,234.4995602965355 z" class="" id="svg_40"/><path fill="#4dd656" fill-opacity="1" stroke="#4dd656" stroke-opacity="1" stroke-width="2" stroke-dasharray="none" stroke-linejoin="round" stroke-linecap="butt" stroke-dashoffset="" fill-rule="nonzero" opacity="1" marker-start="" marker-mid="" marker-end="" d="M314.9366760253906,273.4610318541527 C311.7428283691406,276.0804166197777 304.4969787597656,273.8714322447777 298.7454528808594,268.52481359243393 C292.9938659667969,263.1781949400902 290.9221496582031,256.7256650328636 294.1159362792969,254.10621923208237 C297.3097839355469,251.48677343130112 304.5556335449219,253.69581884145737 310.3071594238281,259.0424527525902 C316.0587463378906,264.3890103697777 318.1305236816406,270.84158605337143 314.9366760253906,273.4610318541527 z" class="" id="svg_39"/><path fill="#4dd656" fill-opacity="1" stroke="#4dd656" stroke-opacity="1" stroke-width="2" stroke-dasharray="none" stroke-linejoin="round" stroke-linecap="butt" stroke-dashoffset="" fill-rule="nonzero" opacity="1" marker-start="" marker-mid="" marker-end="" d="M285.5871887207031,288.2084683775902 C281.3110656738281,288.9693326354027 276.3987731933594,283.3786343932152 274.6103210449219,275.71560949087143 C272.8218688964844,268.05264562368393 274.8368225097656,261.22928136587143 279.1129455566406,260.46841710805893 C283.3890686035156,259.70755285024643 288.3013610839844,265.2981900572777 290.0898742675781,272.96121495962143 C291.8783264160156,280.6242398619652 289.8633117675781,287.44754308462143 285.5871887207031,288.2084683775902 z" class="" id="svg_38"/><path fill="#4dd656" fill-opacity="1" stroke="#4dd656" stroke-opacity="1" stroke-width="2" stroke-dasharray="none" stroke-linejoin="round" stroke-linecap="butt" stroke-dashoffset="" fill-rule="nonzero" opacity="1" marker-start="" marker-mid="" marker-end="" d="M172.04934692382812,286.7524136900902 C166.76486206054688,285.18399327993393 164.81253051757812,277.9329556822777 167.68673706054688,270.54962438344955 C170.56100463867188,263.16620153188705 177.16958618164062,258.4560574889183 182.45407104492188,260.0244168639183 C187.73861694335938,261.59283727407455 189.69088745117188,268.84381383657455 186.81668090820312,276.22720617055893 C183.94241333007812,283.6105679869652 177.33389282226562,288.3207730650902 172.04934692382812,286.7524136900902 z" class="" id="svg_37"/><path fill="#4dd656" fill-opacity="1" stroke="#4dd656" stroke-opacity="1" stroke-width="2" stroke-dasharray="none" stroke-linejoin="round" stroke-linecap="butt" stroke-dashoffset="" fill-rule="nonzero" opacity="1" marker-start="" marker-mid="" marker-end="" d="M149.66287231445312,261.86822789907455 C147.27822875976562,258.5620145201683 150.18728637695312,253.2222165465355 156.16323852539062,249.935961663723 C162.13925170898438,246.6497067809105 168.91140747070312,246.66588109731674 171.29605102539062,249.97203344106674 C173.68063354492188,253.27818578481674 170.77169799804688,258.6180447936058 164.79568481445312,261.90423864126205 C158.81967163085938,265.19049352407455 152.04751586914062,265.1743192076683 149.66287231445312,261.86822789907455 z" class="" id="svg_36"/><path fill="#479b4b" fill-opacity="1" stroke="#479b4b" stroke-opacity="1" stroke-width="2" stroke-dasharray="none" stroke-linejoin="round" stroke-linecap="butt" stroke-dashoffset="" fill-rule="nonzero" opacity="1" marker-start="" marker-mid="" marker-end="" d="M139.46694946289062,246.16087621450424 C139.46694946289062,241.986254632473 143.08779907226562,238.604906976223 147.55795288085938,238.604906976223 C152.02810668945312,238.604906976223 155.64895629882812,241.986254632473 155.64895629882812,246.16087621450424 C155.64895629882812,250.3354977965355 152.02810668945312,253.71690648794174 147.55795288085938,253.71690648794174 C143.08779907226562,253.71690648794174 139.46694946289062,250.3354977965355 139.46694946289062,246.16087621450424 z" id="svg_15" class=""/><path fill="#479b4b" fill-opacity="1" stroke="#479b4b" stroke-opacity="1" stroke-width="2" stroke-dasharray="none" stroke-linejoin="round" stroke-linecap="butt" stroke-dashoffset="" fill-rule="nonzero" opacity="1" marker-start="" marker-mid="" marker-end="" d="M150.28469848632812,272.3605985045433 C149.67684936523438,268.2198514342308 152.77597045898438,264.46393102407455 157.20980834960938,263.96771520376205 C161.64370727539062,263.4714383482933 165.72750854492188,266.42340368032455 166.33541870117188,270.56415075063705 C166.94326782226562,274.7048062682152 163.84414672851562,278.4607877135277 159.41030883789062,278.9570035338402 C154.97640991210938,279.45328038930893 150.89260864257812,276.50125402212143 150.28469848632812,272.3605985045433 z" class="" id="svg_26"/><path fill="#479b4b" fill-opacity="1" stroke="#479b4b" stroke-opacity="1" stroke-width="2" stroke-dasharray="none" stroke-linejoin="round" stroke-linecap="butt" stroke-dashoffset="" fill-rule="nonzero" opacity="1" marker-start="" marker-mid="" marker-end="" d="M186.76480102539062,279.2092007994652 C186.76480102539062,275.2780484557152 190.27279663085938,272.0938748717308 194.60366821289062,272.0938748717308 C198.93447875976562,272.0938748717308 202.44247436523438,275.2780484557152 202.44247436523438,279.2092007994652 C202.44247436523438,283.1403531432152 198.93447875976562,286.32461827993393 194.60366821289062,286.32461827993393 C190.27279663085938,286.32461827993393 186.76480102539062,283.1403531432152 186.76480102539062,279.2092007994652 z" class="" id="svg_19"/><path fill="#479b4b" fill-opacity="1" stroke="#479b4b" stroke-opacity="1" stroke-width="2" stroke-dasharray="none" stroke-linejoin="round" stroke-linecap="butt" stroke-dashoffset="" fill-rule="nonzero" opacity="1" marker-start="" marker-mid="" marker-end="" d="M261.5040588378906,279.0321988463402 C261.5040588378906,274.85757726430893 265.1249084472656,271.4761685729027 269.5950622558594,271.4761685729027 C274.0652160644531,271.4761685729027 277.6860046386719,274.85757726430893 277.6860046386719,279.0321988463402 C277.6860046386719,283.2067593932152 274.0652160644531,286.58816808462143 269.5950622558594,286.58816808462143 C265.1249084472656,286.58816808462143 261.5040588378906,283.2067593932152 261.5040588378906,279.0321988463402 z" class="" id="svg_29"/><path fill="#479b4b" fill-opacity="1" stroke="#479b4b" stroke-opacity="1" stroke-width="2" stroke-dasharray="none" stroke-linejoin="round" stroke-linecap="butt" stroke-dashoffset="" fill-rule="nonzero" opacity="1" marker-start="" marker-mid="" marker-end="" d="M291.0726623535156,277.14566320180893 C291.0726623535156,272.9710416197777 294.6935729980469,269.5896939635277 299.1636657714844,269.5896939635277 C303.6338195800781,269.5896939635277 307.2546691894531,272.9710416197777 307.2546691894531,277.14566320180893 C307.2546691894531,281.32022374868393 303.6338195800781,284.70169347524643 299.1636657714844,284.70169347524643 C294.6935729980469,284.70169347524643 291.0726623535156,281.32022374868393 291.0726623535156,277.14566320180893 z" class="" id="svg_30"/><path fill="#479b4b" fill-opacity="1" stroke="#479b4b" stroke-opacity="1" stroke-width="2" stroke-dasharray="none" stroke-linejoin="round" stroke-linecap="butt" stroke-dashoffset="" fill-rule="nonzero" opacity="1" marker-start="" marker-mid="" marker-end="" d="M305.5926818847656,253.79988378286362 C305.5926818847656,249.62526220083237 309.2135314941406,246.24385350942612 313.6836853027344,246.24385350942612 C318.1538391113281,246.24385350942612 321.7746276855469,249.62526220083237 321.7746276855469,253.79988378286362 C321.7746276855469,257.9744595885277 318.1538391113281,261.35586827993393 313.6836853027344,261.35586827993393 C309.2135314941406,261.35586827993393 305.5926818847656,257.9744595885277 305.5926818847656,253.79988378286362 z" class="" id="svg_31"/></g><path fill="#449348" fill-opacity="1" stroke="#449348" stroke-opacity="1" stroke-width="2" stroke-dasharray="none" stroke-linejoin="round" stroke-linecap="butt" stroke-dashoffset="" fill-rule="nonzero" opacity="1" marker-start="" marker-mid="" marker-end="" d="M87.6151123046875,205.92128270864487 C87.6151123046875,187.730395257473 125.90716552734375,172.995776116848 173.18133544921875,172.995776116848 C220.45559692382812,172.995776116848 258.74761962890625,187.730395257473 258.74761962890625,205.92128270864487 C258.74761962890625,224.11220067739487 220.45559692382812,238.846850335598 173.18133544921875,238.846850335598 C125.90716552734375,238.846850335598 87.6151123046875,224.11220067739487 87.6151123046875,205.92128270864487 z" class="" transform="rotate(25.6712, 173.18, 205.921)" id="svg_5"/><path fill="#449348" fill-opacity="1" stroke="#449348" stroke-opacity="1" stroke-width="2" stroke-dasharray="none" stroke-linejoin="round" stroke-linecap="butt" stroke-dashoffset="" fill-rule="nonzero" opacity="1" marker-start="" marker-mid="" marker-end="" d="M222.16055297851562,200.46678441762924 C222.16055297851562,182.27589696645737 260.4526672363281,167.54127782583237 307.7268371582031,167.54127782583237 C355.0010070800781,167.54127782583237 393.2929992675781,182.27589696645737 393.2929992675781,200.46678441762924 C393.2929992675781,218.65770238637924 355.0010070800781,233.39235204458237 307.7268371582031,233.39235204458237 C260.4526672363281,233.39235204458237 222.16055297851562,218.65770238637924 222.16055297851562,200.46678441762924 z" class="" transform="rotate(148.369, 307.728, 200.468)" id="svg_2"/><path fill="#449348" fill-opacity="1" stroke="#449348" stroke-opacity="1" stroke-width="2" stroke-dasharray="none" stroke-linejoin="round" stroke-linecap="butt" stroke-dashoffset="" fill-rule="nonzero" opacity="1" marker-start="" marker-mid="" marker-end="" d="M153.72726440429688,150.90904515981674 C153.72726440429688,106.15765661001205 191.09466552734375,69.90909093618393 237.22726440429688,69.90909093618393 C283.3598327636719,69.90909093618393 320.7272644042969,106.15765661001205 320.7272644042969,150.90904515981674 C320.7272644042969,195.66041845083237 283.3598327636719,231.90904515981674 237.22726440429688,231.90904515981674 C191.09466552734375,231.90904515981674 153.72726440429688,195.66041845083237 153.72726440429688,150.90904515981674 z" id="svg_6" class=""/><path fill="#f2f2f2" fill-opacity="1" stroke="#f2f2f2" stroke-opacity="1" stroke-width="2" stroke-dasharray="none" stroke-linejoin="round" stroke-linecap="butt" stroke-dashoffset="" fill-rule="nonzero" opacity="1" marker-start="" marker-mid="" marker-end="" d="M167.9091796875,158.59068578481674 C167.9091796875,116.77728551626205 199.23513793945312,82.90846532583237 237.90924072265625,82.90846532583237 C276.58331298828125,82.90846532583237 307.9092712402344,116.77728551626205 307.9092712402344,158.59068578481674 C307.9092712402344,200.403979241848 276.58331298828125,234.27284520864487 237.90924072265625,234.27284520864487 C199.23513793945312,234.27284520864487 167.9091796875,200.403979241848 167.9091796875,158.59068578481674 z" id="svg_33" class=""/><path fill="#449348" fill-opacity="1" stroke="#449348" stroke-opacity="1" stroke-width="2" stroke-dasharray="none" stroke-linejoin="round" stroke-linecap="butt" stroke-dashoffset="" fill-rule="nonzero" opacity="1" marker-start="" marker-mid="" marker-end="" d="M158.00009155273438,77.54555028676987 C158.00009155273438,49.67022222280502 193.94369506835938,27.091107308864594 238.31832885742188,27.091107308864594 C282.6929626464844,27.091107308864594 318.6364440917969,49.67022222280502 318.6364440917969,77.54555028676987 C318.6364440917969,105.42094701528549 282.6929626464844,128.0000028014183 238.31832885742188,128.0000028014183 C193.94369506835938,128.0000028014183 158.00009155273438,105.42094701528549 158.00009155273438,77.54555028676987 z" id="svg_44" class=""/><path fill="#723939" fill-opacity="1" stroke="#449348" stroke-opacity="1" stroke-width="2" stroke-dasharray="none" stroke-linejoin="round" stroke-linecap="butt" stroke-dashoffset="" fill-rule="nonzero" opacity="1" marker-start="" marker-mid="" marker-end="" d="M210.92697143554688,102.37279027700424 C206.99676513671875,97.89950841665268 220.92593383789062,105.5302762389183 233.27032470703125,105.5302762389183 C245.61465454101562,105.5302762389183 260.7228698730469,97.19391149282455 255.61358642578125,102.37279027700424 C250.50433349609375,107.55168431997299 246.0076904296875,115.09108251333237 233.66329956054688,115.09108251333237 C221.31893920898438,115.09108251333237 214.85723876953125,106.84608739614487 210.92697143554688,102.37279027700424 z" id="svg_50" class=""/><g class="" id="svg_7"><path fill="#449348" fill-opacity="1" stroke="#449348" stroke-opacity="1" stroke-width="2" stroke-dasharray="none" stroke-linejoin="round" stroke-linecap="butt" stroke-dashoffset="" fill-rule="nonzero" opacity="1" marker-start="" marker-mid="" marker-end="" d="M178.45452880859375,39.45453542470932 C178.45452880859375,23.984894692897797 190.08990478515625,11.454536378383636 204.45452880859375,11.454536378383636 C218.8192138671875,11.454536378383636 230.45452880859375,23.984894692897797 230.45452880859375,39.45453542470932 C230.45452880859375,54.92415899038315 218.8192138671875,67.45454686880112 204.45452880859375,67.45454686880112 C190.08990478515625,67.45454686880112 178.45452880859375,54.92415899038315 178.45452880859375,39.45453542470932 z" id="svg_54" class=""/><path fill="#ffffff" fill-opacity="1" stroke="#ffffff" stroke-opacity="1" stroke-width="2" stroke-dasharray="none" stroke-linejoin="round" stroke-linecap="butt" stroke-dashoffset="" fill-rule="nonzero" opacity="1" marker-start="" marker-mid="" marker-end="" d="M185.99993896484375,38.544985711574554 C185.99993896484375,27.89718335866928 194.09588623046875,19.27252858877182 204.0908203125,19.27252858877182 C214.08575439453125,19.27252858877182 222.18170166015625,27.89718335866928 222.18170166015625,38.544985711574554 C222.18170166015625,49.19274419546127 214.08575439453125,57.81743901968002 204.0908203125,57.81743901968002 C194.09588623046875,57.81743901968002 185.99993896484375,49.19274419546127 185.99993896484375,38.544985711574554 z" id="svg_60" class=""/><path fill="#723939" fill-opacity="1" stroke="#723939" stroke-opacity="1" stroke-width="2" stroke-dasharray="none" stroke-linejoin="round" stroke-linecap="butt" stroke-dashoffset="" fill-rule="nonzero" opacity="1" marker-start="" marker-mid="" marker-end="" d="M195.3636474609375,43.818159997463226 C195.3636474609375,38.29330724477768 199.3912353515625,33.81813710927963 204.3636474609375,33.81813710927963 C209.33599853515625,33.81813710927963 213.3636474609375,38.29330724477768 213.3636474609375,43.818159997463226 C213.3636474609375,49.3430432677269 209.33599853515625,53.81817144155502 204.3636474609375,53.81817144155502 C199.3912353515625,53.81817144155502 195.3636474609375,49.3430432677269 195.3636474609375,43.818159997463226 z" id="svg_65" class=""/><path fill="#449348" fill-opacity="1" stroke="#449348" stroke-opacity="1" stroke-width="2" stroke-dasharray="none" stroke-linejoin="round" stroke-linecap="butt" stroke-dashoffset="" fill-rule="nonzero" opacity="1" marker-start="" marker-mid="" marker-end="" d="M243,39.45453542470932 C243,23.984894692897797 254.6353759765625,11.454551637172699 269,11.454551637172699 C283.36468505859375,11.454551637172699 295,23.984894692897797 295,39.45453542470932 C295,54.92415899038315 283.36468505859375,67.45454686880112 269,67.45454686880112 C254.6353759765625,67.45454686880112 243,54.92415899038315 243,39.45453542470932 z" class="" id="svg_92"/><path fill="#ffffff" fill-opacity="1" stroke="#ffffff" stroke-opacity="1" stroke-width="2" stroke-dasharray="none" stroke-linejoin="round" stroke-linecap="butt" stroke-dashoffset="" fill-rule="nonzero" opacity="1" marker-start="" marker-mid="" marker-end="" d="M250.54541015625,39.454077661037445 C250.54541015625,28.806269586086273 258.641357421875,20.181614816188812 268.63629150390625,20.181614816188812 C278.6312255859375,20.181614816188812 286.7271728515625,28.806269586086273 286.7271728515625,39.454077661037445 C286.7271728515625,50.1018323302269 278.6312255859375,58.72652715444565 268.63629150390625,58.72652715444565 C258.641357421875,58.72652715444565 250.54541015625,50.1018323302269 250.54541015625,39.454077661037445 z" class="" id="svg_93"/><path fill="#723939" fill-opacity="1" stroke="#723939" stroke-opacity="1" stroke-width="2" stroke-dasharray="none" stroke-linejoin="round" stroke-linecap="butt" stroke-dashoffset="" fill-rule="nonzero" opacity="1" marker-start="" marker-mid="" marker-end="" d="M259.90911865234375,43.818159997463226 C259.90911865234375,38.29330724477768 263.93670654296875,33.81813710927963 268.90911865234375,33.81813710927963 C273.8814697265625,33.81813710927963 277.90911865234375,38.29330724477768 277.90911865234375,43.818159997463226 C277.90911865234375,49.3430432677269 273.8814697265625,53.81817144155502 268.90911865234375,53.81817144155502 C263.93670654296875,53.81817144155502 259.90911865234375,49.3430432677269 259.90911865234375,43.818159997463226 z" class="" id="svg_91"/></g><g class=""><path fill="#723939" fill-opacity="1" stroke="#449348" stroke-opacity="1" stroke-width="2" stroke-dasharray="none" stroke-linejoin="round" stroke-linecap="butt" stroke-dashoffset="" fill-rule="nonzero" opacity="1" marker-start="" marker-mid="" marker-end="" d="M223,70.45454686880112 C223,66.0346707701683 224.79006958007812,62.45456975698471 227,62.45456975698471 C229.20993041992188,62.45456975698471 231,66.0346707701683 231,70.45454686880112 C231,74.87442296743393 229.20993041992188,78.45451635122299 227,78.45451635122299 C224.79006958007812,78.45451635122299 223,74.87442296743393 223,70.45454686880112 z" id="svg_8" class="" transform="rotate(23.9589, 227, 70.4545)"/><path fill="#723939" fill-opacity="1" stroke="#449348" stroke-opacity="1" stroke-width="2" stroke-dasharray="none" stroke-linejoin="round" stroke-linecap="butt" stroke-dashoffset="" fill-rule="nonzero" opacity="1" marker-start="" marker-mid="" marker-end="" d="M237.54544067382812,70.45454686880112 C237.54544067382812,66.0346707701683 239.33551025390625,62.45456975698471 241.54544067382812,62.45456975698471 C243.75540161132812,62.45456975698471 245.54544067382812,66.0346707701683 245.54544067382812,70.45454686880112 C245.54544067382812,74.87442296743393 243.75540161132812,78.45451635122299 241.54544067382812,78.45451635122299 C239.33551025390625,78.45451635122299 237.54544067382812,74.87442296743393 237.54544067382812,70.45454686880112 z" class="" transform="rotate(-21.6074, 241.547, 70.4546)" id="svg_12"/></g></g></svg>