<?xml version="1.0" ?><svg enable-background="new 0 0 512 512" id="Layer_1" version="1.1" viewBox="0 0 512 512" xml:space="preserve" xmlns="http://www.w3.org/2000/svg" xmlns:xlink="http://www.w3.org/1999/xlink"><g><g><linearGradient gradientUnits="userSpaceOnUse" id="SVGID_1_" x1="0.0000038" x2="512" y1="256" y2="256"><stop offset="0" style="stop-color:#00AEEE"/><stop offset="1" style="stop-color:#0095DA"/></linearGradient><circle cx="256" cy="256" fill="url(#SVGID_1_)" r="256"/><linearGradient gradientUnits="userSpaceOnUse" id="SVGID_2_" x1="42.6666679" x2="469.3333435" y1="256.0005188" y2="256.0005188"><stop offset="0" style="stop-color:#0095DA"/><stop offset="1" style="stop-color:#00AEEE"/></linearGradient><path d="M256,469.3338623c-117.6314697,0-213.3333282-95.7023926-213.3333282-213.3333435    c0-117.6314545,95.7018585-213.333313,213.3333282-213.333313c117.636261,0,213.3333435,95.7018661,213.3333435,213.333313    C469.3333435,373.6314697,373.636261,469.3338623,256,469.3338623z" fill="url(#SVGID_2_)"/></g><path d="M359,155.624527H169c-13.8000031,0-25,11.2000122-25,25v124.1002655c0,13.8000183,11.1999969,25,25,25   h52.3999939L264,372.374939l42.6000061-42.6501465H359c13.7999878,0,25-11.1999817,25-25V180.624527   C384,166.8245392,372.7999878,155.624527,359,155.624527z M323.9984131,287.5925293H203.9983978v-10h120.0000153V287.5925293z    M348.9984131,248.4250641H178.9983978v-10h170.0000153V248.4250641z M348.9984131,209.2575989H178.9983978v-10h170.0000153   V209.2575989z" opacity="0.3"/><path d="M351,147.624527H161c-13.8000031,0-25,11.2000122-25,25v124.1002655c0,13.8000183,11.1999969,25,25,25   h52.3999939L256,364.374939l42.6000061-42.6501465H351c13.7999878,0,25-11.1999817,25-25V172.624527   C376,158.8245392,364.7999878,147.624527,351,147.624527z M315.9984131,279.5925293H195.9983978v-10h120.0000153V279.5925293z    M340.9984131,240.4250641H170.9983978v-10h170.0000153V240.4250641z M340.9984131,201.2575989H170.9983978v-10h170.0000153   V201.2575989z" fill="#FFFFFF"/></g></svg>