<?xml version="1.0" encoding="UTF-8" standalone="no" ?>
<!DOCTYPE svg PUBLIC "-//W3C//DTD SVG 1.1//EN" "http://www.w3.org/Graphics/SVG/1.1/DTD/svg11.dtd">
<svg xmlns="http://www.w3.org/2000/svg" xmlns:xlink="http://www.w3.org/1999/xlink" version="1.1" width="800" height="500" viewBox="0 0 800 500" xml:space="preserve">
<g transform="matrix(0.29 0 0 0.3 135.83 397.91)" id="ObrSxp6F-pO9Rd4W7l2Ss"  >
<g style="" vector-effect="non-scaling-stroke"   >
		<g transform="matrix(1.28 0 0 1.28 -0.79 -21.77)" id="nRvsrFUmjRz_Ykqc4EcY8"  >
<path style="stroke: rgb(0,0,0); stroke-width: 1; stroke-dasharray: none; stroke-linecap: round; stroke-dashoffset: 6; stroke-linejoin: round; stroke-miterlimit: 1; fill: rgb(0,0,0); fill-rule: nonzero; opacity: 1;" vector-effect="non-scaling-stroke"  transform=" translate(0, 0.36)" d="M -180.323 -114.594 C -180.323 -114.594 -201.041 -120.571 -204.52 -154.484 C -207.998 -188.397 -192.671 -203.289 -192.671 -203.289 C -192.671 -203.289 -165.866 -229.485 -140.323 -225.029 C -114.78 -220.573 -106.667 -221.174 -90.063 -199.811 C -73.459 -178.448 -79.628 -175.724 -51.802 -168.768 C -23.976 -161.811 8.057 -163.946 8.057 -163.946 L 40.98 -168.279 C 40.98 -168.279 61.211 -168.706 76.863 -179.649 C 92.515 -190.592 82.285 -183.289 99.677 -204.159 C 117.068 -225.029 143.741 -225.463 143.741 -225.463 C 143.741 -225.463 165.915 -233.616 193.741 -206.66 C 221.567 -179.703 202.981 -142.42 196.024 -133.724 C 189.068 -125.029 179.677 -118.072 179.677 -118.072 C 179.677 -118.072 202.981 -103.289 206.459 -84.159 C 209.937 -65.029 167.329 29.754 170.807 38.45 C 174.285 47.145 176.185 39.032 188.198 31.232 C 200.212 23.433 224.894 22.537 239.677 51.232 C 254.459 79.928 189.068 131.232 189.068 131.232 C 189.068 131.232 149.242 171.493 199.677 167.145 C 250.111 162.798 239.677 204.537 239.677 204.537 C 239.677 204.537 228.372 232.363 199.677 218.45 C 170.981 204.537 128.198 200.189 128.198 200.189 C 128.198 200.189 60.372 213.232 53.416 217.58 C 46.459 221.928 -2.236 229.754 -36.15 223.667 C -70.063 217.58 -64.845 211.493 -104.845 205.406 C -144.845 199.319 -177.715 211.232 -180.323 211.232 C -182.932 211.232 -223.106 237.319 -234.41 211.232 C -245.715 185.145 -238.758 179.058 -230.932 171.232 C -223.106 163.406 -201.367 178.45 -185.715 164.537 C -170.063 150.624 -168.323 153.841 -191.802 131.232 C -215.28 108.624 -231.628 92.102 -240.323 71.232 C -249.019 50.363 -218.584 24.276 -200.323 31.232 C -182.063 38.189 -183.326 34.101 -167.454 40.189 C -151.582 46.277 -199.628 -39.202 -204.845 -68.768 C -210.063 -98.333 -180.323 -114.594 -180.323 -114.594 Z" stroke-linecap="round" />
</g>
		<g transform="matrix(1.28 0 0 1.28 191.9 -235.58)" id="7KCSlKueoJxSSFNu3ttNu"  >
<path style="stroke: rgb(0,0,0); stroke-width: 1; stroke-dasharray: none; stroke-linecap: butt; stroke-dashoffset: 0; stroke-linejoin: miter; stroke-miterlimit: 4; fill: rgb(255,255,255); fill-rule: nonzero; opacity: 1;" vector-effect="non-scaling-stroke"  transform=" translate(-42.61, -42.61)" d="M 42.60869 0 C 66.12869 0 85.21738 19.08869 85.21738 42.60869 C 85.21738 66.12869 66.12869 85.21738 42.60869 85.21738 C 19.088690000000003 85.21738 0 66.12869 0 42.60869 C 0 19.088690000000003 19.08869 0 42.60869 0 z" stroke-linecap="round" />
</g>
		<g transform="matrix(1.28 0 0 1.28 -190.73 -233.64)" id="z0zaTQOjjOwYXL0lQkDBg"  >
<path style="stroke: rgb(0,0,0); stroke-width: 1; stroke-dasharray: none; stroke-linecap: butt; stroke-dashoffset: 0; stroke-linejoin: miter; stroke-miterlimit: 4; fill: rgb(255,255,255); fill-rule: nonzero; opacity: 1;" vector-effect="non-scaling-stroke"  transform=" translate(-42.61, -42.61)" d="M 42.60869 0 C 66.12869 0 85.21738 19.08869 85.21738 42.60869 C 85.21738 66.12869 66.12869 85.21738 42.60869 85.21738 C 19.088690000000003 85.21738 0 66.12869 0 42.60869 C 0 19.088690000000003 19.08869 0 42.60869 0 z" stroke-linecap="round" />
</g>
		<g transform="matrix(0.6 0 0 0.6 -190.41 -237.16)" id="gyvQQKeqJhom2lnKJERzR"  >
<path style="stroke: rgb(0,0,0); stroke-width: 1; stroke-dasharray: none; stroke-linecap: butt; stroke-dashoffset: 0; stroke-linejoin: miter; stroke-miterlimit: 4; fill: rgb(0,0,0); fill-rule: nonzero; opacity: 1;" vector-effect="non-scaling-stroke"  transform=" translate(0, 0)" d="M 0 -42.60869 C 23.52 -42.60869 42.60869 -23.520000000000003 42.60869 0 C 42.60869 23.52 23.520000000000003 42.60869 0 42.60869 C -23.52 42.60869 -42.60869 23.520000000000003 -42.60869 0 C -42.60869 -23.52 -23.520000000000003 -42.60869 0 -42.60869 z" stroke-linecap="round" />
</g>
		<g transform="matrix(0.6 0 0 0.6 193.59 -237.16)" id="-AA7zx8CpcB79JYi9L9Cg"  >
<path style="stroke: rgb(0,0,0); stroke-width: 1; stroke-dasharray: none; stroke-linecap: butt; stroke-dashoffset: 0; stroke-linejoin: miter; stroke-miterlimit: 4; fill: rgb(0,0,0); fill-rule: nonzero; opacity: 1;" vector-effect="non-scaling-stroke"  transform=" translate(0, 0)" d="M 0 -42.60869 C 23.52 -42.60869 42.60869 -23.520000000000003 42.60869 0 C 42.60869 23.52 23.520000000000003 42.60869 0 42.60869 C -23.52 42.60869 -42.60869 23.520000000000003 -42.60869 0 C -42.60869 -23.52 -23.520000000000003 -42.60869 0 -42.60869 z" stroke-linecap="round" />
</g>
		<g transform="matrix(1.28 0 0 1.28 -0.72 13.59)" id="FBNnLO2l9b1d1i9gIqao_"  >
<path style="stroke: rgb(0,0,0); stroke-width: 1; stroke-dasharray: none; stroke-linecap: butt; stroke-dashoffset: 0; stroke-linejoin: miter; stroke-miterlimit: 4; fill: rgb(255,255,255); fill-rule: nonzero; opacity: 1;" vector-effect="non-scaling-stroke"  transform=" translate(-0.41, 0.51)" d="M 6.405 -170.019 C 52.088 -171.192 53.176 -173.864 71.417 -168.361 C 89.658 -162.858 110.194 -143.638 110.194 -143.638 C 110.194 -143.638 135.789 -123.263 158.397 -120.654 C 181.006 -118.045 159.125 -57.014 159.125 -57.014 L 87.647 136.29 C 87.647 136.29 60.864 175.421 -0.875 170.203 C -62.614 164.986 -88.005 152.812 -95.831 116.29 C -103.657 79.768 -154.962 -49.797 -154.962 -49.797 C -154.962 -49.797 -167.136 -83.71 -166.266 -83.71 C -165.397 -83.71 -173.95 -100.876 -158.258 -115.194 C -142.566 -129.512 -133.679 -115.103 -107.464 -139.081 C -81.249 -163.059 -65.662 -166.01 -63.818 -166.725 C -60.693 -167.937 -39.278 -168.846 6.405 -170.019 Z" stroke-linecap="round" />
</g>
</g>
</g>
<g transform="matrix(0.29 0 0 0.3 691.14 416.19)" id="Cp7ltwoznLQD4UXQE8kAe"  >
<g style="" vector-effect="non-scaling-stroke"   >
		<g transform="matrix(1.28 0 0 1.28 -0.79 -21.77)" id="9OLrZsbXAm14Yz9BKT-cL"  >
<path style="stroke: rgb(0,0,0); stroke-width: 1; stroke-dasharray: none; stroke-linecap: round; stroke-dashoffset: 6; stroke-linejoin: round; stroke-miterlimit: 1; fill: rgb(0,0,0); fill-rule: nonzero; opacity: 1;" vector-effect="non-scaling-stroke"  transform=" translate(0, 0.36)" d="M -180.323 -114.594 C -180.323 -114.594 -201.041 -120.571 -204.52 -154.484 C -207.998 -188.397 -192.671 -203.289 -192.671 -203.289 C -192.671 -203.289 -165.866 -229.485 -140.323 -225.029 C -114.78 -220.573 -106.667 -221.174 -90.063 -199.811 C -73.459 -178.448 -79.628 -175.724 -51.802 -168.768 C -23.976 -161.811 8.057 -163.946 8.057 -163.946 L 40.98 -168.279 C 40.98 -168.279 61.211 -168.706 76.863 -179.649 C 92.515 -190.592 82.285 -183.289 99.677 -204.159 C 117.068 -225.029 143.741 -225.463 143.741 -225.463 C 143.741 -225.463 165.915 -233.616 193.741 -206.66 C 221.567 -179.703 202.981 -142.42 196.024 -133.724 C 189.068 -125.029 179.677 -118.072 179.677 -118.072 C 179.677 -118.072 202.981 -103.289 206.459 -84.159 C 209.937 -65.029 167.329 29.754 170.807 38.45 C 174.285 47.145 176.185 39.032 188.198 31.232 C 200.212 23.433 224.894 22.537 239.677 51.232 C 254.459 79.928 189.068 131.232 189.068 131.232 C 189.068 131.232 149.242 171.493 199.677 167.145 C 250.111 162.798 239.677 204.537 239.677 204.537 C 239.677 204.537 228.372 232.363 199.677 218.45 C 170.981 204.537 128.198 200.189 128.198 200.189 C 128.198 200.189 60.372 213.232 53.416 217.58 C 46.459 221.928 -2.236 229.754 -36.15 223.667 C -70.063 217.58 -64.845 211.493 -104.845 205.406 C -144.845 199.319 -177.715 211.232 -180.323 211.232 C -182.932 211.232 -223.106 237.319 -234.41 211.232 C -245.715 185.145 -238.758 179.058 -230.932 171.232 C -223.106 163.406 -201.367 178.45 -185.715 164.537 C -170.063 150.624 -168.323 153.841 -191.802 131.232 C -215.28 108.624 -231.628 92.102 -240.323 71.232 C -249.019 50.363 -218.584 24.276 -200.323 31.232 C -182.063 38.189 -183.326 34.101 -167.454 40.189 C -151.582 46.277 -199.628 -39.202 -204.845 -68.768 C -210.063 -98.333 -180.323 -114.594 -180.323 -114.594 Z" stroke-linecap="round" />
</g>
		<g transform="matrix(1.28 0 0 1.28 191.9 -235.58)" id="kR7G4hcKmRfEq3e1SMcXz"  >
<path style="stroke: rgb(0,0,0); stroke-width: 1; stroke-dasharray: none; stroke-linecap: butt; stroke-dashoffset: 0; stroke-linejoin: miter; stroke-miterlimit: 4; fill: rgb(255,255,255); fill-rule: nonzero; opacity: 1;" vector-effect="non-scaling-stroke"  transform=" translate(-42.61, -42.61)" d="M 42.60869 0 C 66.12869 0 85.21738 19.08869 85.21738 42.60869 C 85.21738 66.12869 66.12869 85.21738 42.60869 85.21738 C 19.088690000000003 85.21738 0 66.12869 0 42.60869 C 0 19.088690000000003 19.08869 0 42.60869 0 z" stroke-linecap="round" />
</g>
		<g transform="matrix(1.28 0 0 1.28 -190.73 -233.64)" id="N1CxwKD27pGtCEOF8TYCT"  >
<path style="stroke: rgb(0,0,0); stroke-width: 1; stroke-dasharray: none; stroke-linecap: butt; stroke-dashoffset: 0; stroke-linejoin: miter; stroke-miterlimit: 4; fill: rgb(255,255,255); fill-rule: nonzero; opacity: 1;" vector-effect="non-scaling-stroke"  transform=" translate(-42.61, -42.61)" d="M 42.60869 0 C 66.12869 0 85.21738 19.08869 85.21738 42.60869 C 85.21738 66.12869 66.12869 85.21738 42.60869 85.21738 C 19.088690000000003 85.21738 0 66.12869 0 42.60869 C 0 19.088690000000003 19.08869 0 42.60869 0 z" stroke-linecap="round" />
</g>
		<g transform="matrix(0.6 0 0 0.6 -190.41 -237.16)" id="B6qTOMkTU55_gPGVU9D4e"  >
<path style="stroke: rgb(0,0,0); stroke-width: 1; stroke-dasharray: none; stroke-linecap: butt; stroke-dashoffset: 0; stroke-linejoin: miter; stroke-miterlimit: 4; fill: rgb(0,0,0); fill-rule: nonzero; opacity: 1;" vector-effect="non-scaling-stroke"  transform=" translate(0, 0)" d="M 0 -42.60869 C 23.52 -42.60869 42.60869 -23.520000000000003 42.60869 0 C 42.60869 23.52 23.520000000000003 42.60869 0 42.60869 C -23.52 42.60869 -42.60869 23.520000000000003 -42.60869 0 C -42.60869 -23.52 -23.520000000000003 -42.60869 0 -42.60869 z" stroke-linecap="round" />
</g>
		<g transform="matrix(0.6 0 0 0.6 193.59 -237.16)" id="Cebxt4KY5zOauvMfmDxLK"  >
<path style="stroke: rgb(0,0,0); stroke-width: 1; stroke-dasharray: none; stroke-linecap: butt; stroke-dashoffset: 0; stroke-linejoin: miter; stroke-miterlimit: 4; fill: rgb(0,0,0); fill-rule: nonzero; opacity: 1;" vector-effect="non-scaling-stroke"  transform=" translate(0, 0)" d="M 0 -42.60869 C 23.52 -42.60869 42.60869 -23.520000000000003 42.60869 0 C 42.60869 23.52 23.520000000000003 42.60869 0 42.60869 C -23.52 42.60869 -42.60869 23.520000000000003 -42.60869 0 C -42.60869 -23.52 -23.520000000000003 -42.60869 0 -42.60869 z" stroke-linecap="round" />
</g>
		<g transform="matrix(1.28 0 0 1.28 -0.72 13.59)" id="rR9DSTkIl7Jz2IvSA9vGF"  >
<path style="stroke: rgb(0,0,0); stroke-width: 1; stroke-dasharray: none; stroke-linecap: butt; stroke-dashoffset: 0; stroke-linejoin: miter; stroke-miterlimit: 4; fill: rgb(255,255,255); fill-rule: nonzero; opacity: 1;" vector-effect="non-scaling-stroke"  transform=" translate(-0.41, 0.51)" d="M 6.405 -170.019 C 52.088 -171.192 53.176 -173.864 71.417 -168.361 C 89.658 -162.858 110.194 -143.638 110.194 -143.638 C 110.194 -143.638 135.789 -123.263 158.397 -120.654 C 181.006 -118.045 159.125 -57.014 159.125 -57.014 L 87.647 136.29 C 87.647 136.29 60.864 175.421 -0.875 170.203 C -62.614 164.986 -88.005 152.812 -95.831 116.29 C -103.657 79.768 -154.962 -49.797 -154.962 -49.797 C -154.962 -49.797 -167.136 -83.71 -166.266 -83.71 C -165.397 -83.71 -173.95 -100.876 -158.258 -115.194 C -142.566 -129.512 -133.679 -115.103 -107.464 -139.081 C -81.249 -163.059 -65.662 -166.01 -63.818 -166.725 C -60.693 -167.937 -39.278 -168.846 6.405 -170.019 Z" stroke-linecap="round" />
</g>
</g>
</g>
<g transform="matrix(0.29 0 0 0.3 462.47 392.02)" id="Al63Lhrvfwx52EJBI2hzf"  >
<g style="" vector-effect="non-scaling-stroke"   >
		<g transform="matrix(1.28 0 0 1.28 -0.79 -21.77)" id="T1EC8K7MXFCVRUM0K-Z9G"  >
<path style="stroke: rgb(0,0,0); stroke-width: 1; stroke-dasharray: none; stroke-linecap: round; stroke-dashoffset: 6; stroke-linejoin: round; stroke-miterlimit: 1; fill: rgb(0,0,0); fill-rule: nonzero; opacity: 1;" vector-effect="non-scaling-stroke"  transform=" translate(0, 0.36)" d="M -180.323 -114.594 C -180.323 -114.594 -201.041 -120.571 -204.52 -154.484 C -207.998 -188.397 -192.671 -203.289 -192.671 -203.289 C -192.671 -203.289 -165.866 -229.485 -140.323 -225.029 C -114.78 -220.573 -106.667 -221.174 -90.063 -199.811 C -73.459 -178.448 -79.628 -175.724 -51.802 -168.768 C -23.976 -161.811 8.057 -163.946 8.057 -163.946 L 40.98 -168.279 C 40.98 -168.279 61.211 -168.706 76.863 -179.649 C 92.515 -190.592 82.285 -183.289 99.677 -204.159 C 117.068 -225.029 143.741 -225.463 143.741 -225.463 C 143.741 -225.463 165.915 -233.616 193.741 -206.66 C 221.567 -179.703 202.981 -142.42 196.024 -133.724 C 189.068 -125.029 179.677 -118.072 179.677 -118.072 C 179.677 -118.072 202.981 -103.289 206.459 -84.159 C 209.937 -65.029 167.329 29.754 170.807 38.45 C 174.285 47.145 176.185 39.032 188.198 31.232 C 200.212 23.433 224.894 22.537 239.677 51.232 C 254.459 79.928 189.068 131.232 189.068 131.232 C 189.068 131.232 149.242 171.493 199.677 167.145 C 250.111 162.798 239.677 204.537 239.677 204.537 C 239.677 204.537 228.372 232.363 199.677 218.45 C 170.981 204.537 128.198 200.189 128.198 200.189 C 128.198 200.189 60.372 213.232 53.416 217.58 C 46.459 221.928 -2.236 229.754 -36.15 223.667 C -70.063 217.58 -64.845 211.493 -104.845 205.406 C -144.845 199.319 -177.715 211.232 -180.323 211.232 C -182.932 211.232 -223.106 237.319 -234.41 211.232 C -245.715 185.145 -238.758 179.058 -230.932 171.232 C -223.106 163.406 -201.367 178.45 -185.715 164.537 C -170.063 150.624 -168.323 153.841 -191.802 131.232 C -215.28 108.624 -231.628 92.102 -240.323 71.232 C -249.019 50.363 -218.584 24.276 -200.323 31.232 C -182.063 38.189 -183.326 34.101 -167.454 40.189 C -151.582 46.277 -199.628 -39.202 -204.845 -68.768 C -210.063 -98.333 -180.323 -114.594 -180.323 -114.594 Z" stroke-linecap="round" />
</g>
		<g transform="matrix(1.28 0 0 1.28 191.9 -235.58)" id="RqQ8be4YpDy37DwOrVFOG"  >
<path style="stroke: rgb(0,0,0); stroke-width: 1; stroke-dasharray: none; stroke-linecap: butt; stroke-dashoffset: 0; stroke-linejoin: miter; stroke-miterlimit: 4; fill: rgb(255,255,255); fill-rule: nonzero; opacity: 1;" vector-effect="non-scaling-stroke"  transform=" translate(-42.61, -42.61)" d="M 42.60869 0 C 66.12869 0 85.21738 19.08869 85.21738 42.60869 C 85.21738 66.12869 66.12869 85.21738 42.60869 85.21738 C 19.088690000000003 85.21738 0 66.12869 0 42.60869 C 0 19.088690000000003 19.08869 0 42.60869 0 z" stroke-linecap="round" />
</g>
		<g transform="matrix(1.28 0 0 1.28 -190.73 -233.64)" id="nHGgOOqQJvnlyIe0Vfmli"  >
<path style="stroke: rgb(0,0,0); stroke-width: 1; stroke-dasharray: none; stroke-linecap: butt; stroke-dashoffset: 0; stroke-linejoin: miter; stroke-miterlimit: 4; fill: rgb(255,255,255); fill-rule: nonzero; opacity: 1;" vector-effect="non-scaling-stroke"  transform=" translate(-42.61, -42.61)" d="M 42.60869 0 C 66.12869 0 85.21738 19.08869 85.21738 42.60869 C 85.21738 66.12869 66.12869 85.21738 42.60869 85.21738 C 19.088690000000003 85.21738 0 66.12869 0 42.60869 C 0 19.088690000000003 19.08869 0 42.60869 0 z" stroke-linecap="round" />
</g>
		<g transform="matrix(0.6 0 0 0.6 -190.41 -237.16)" id="5qGdjiSVJNwbDJNnrOYjT"  >
<path style="stroke: rgb(0,0,0); stroke-width: 1; stroke-dasharray: none; stroke-linecap: butt; stroke-dashoffset: 0; stroke-linejoin: miter; stroke-miterlimit: 4; fill: rgb(0,0,0); fill-rule: nonzero; opacity: 1;" vector-effect="non-scaling-stroke"  transform=" translate(0, 0)" d="M 0 -42.60869 C 23.52 -42.60869 42.60869 -23.520000000000003 42.60869 0 C 42.60869 23.52 23.520000000000003 42.60869 0 42.60869 C -23.52 42.60869 -42.60869 23.520000000000003 -42.60869 0 C -42.60869 -23.52 -23.520000000000003 -42.60869 0 -42.60869 z" stroke-linecap="round" />
</g>
		<g transform="matrix(0.6 0 0 0.6 193.59 -237.16)" id="fZISh3f4NMTWctkMIE7yA"  >
<path style="stroke: rgb(0,0,0); stroke-width: 1; stroke-dasharray: none; stroke-linecap: butt; stroke-dashoffset: 0; stroke-linejoin: miter; stroke-miterlimit: 4; fill: rgb(0,0,0); fill-rule: nonzero; opacity: 1;" vector-effect="non-scaling-stroke"  transform=" translate(0, 0)" d="M 0 -42.60869 C 23.52 -42.60869 42.60869 -23.520000000000003 42.60869 0 C 42.60869 23.52 23.520000000000003 42.60869 0 42.60869 C -23.52 42.60869 -42.60869 23.520000000000003 -42.60869 0 C -42.60869 -23.52 -23.520000000000003 -42.60869 0 -42.60869 z" stroke-linecap="round" />
</g>
		<g transform="matrix(1.28 0 0 1.28 -0.72 13.59)" id="7NF5JCXoL6O8LNmybtgYv"  >
<path style="stroke: rgb(0,0,0); stroke-width: 1; stroke-dasharray: none; stroke-linecap: butt; stroke-dashoffset: 0; stroke-linejoin: miter; stroke-miterlimit: 4; fill: rgb(255,255,255); fill-rule: nonzero; opacity: 1;" vector-effect="non-scaling-stroke"  transform=" translate(-0.41, 0.51)" d="M 6.405 -170.019 C 52.088 -171.192 53.176 -173.864 71.417 -168.361 C 89.658 -162.858 110.194 -143.638 110.194 -143.638 C 110.194 -143.638 135.789 -123.263 158.397 -120.654 C 181.006 -118.045 159.125 -57.014 159.125 -57.014 L 87.647 136.29 C 87.647 136.29 60.864 175.421 -0.875 170.203 C -62.614 164.986 -88.005 152.812 -95.831 116.29 C -103.657 79.768 -154.962 -49.797 -154.962 -49.797 C -154.962 -49.797 -167.136 -83.71 -166.266 -83.71 C -165.397 -83.71 -173.95 -100.876 -158.258 -115.194 C -142.566 -129.512 -133.679 -115.103 -107.464 -139.081 C -81.249 -163.059 -65.662 -166.01 -63.818 -166.725 C -60.693 -167.937 -39.278 -168.846 6.405 -170.019 Z" stroke-linecap="round" />
</g>
</g>
</g>
<g transform="matrix(0.81 0 0 0.77 400 376.06)" id="xw51MK6gDK8uzESRw1nip"  >
<path style="stroke: none; stroke-width: 1; stroke-dasharray: none; stroke-linecap: butt; stroke-dashoffset: 0; stroke-linejoin: miter; stroke-miterlimit: 4; fill: rgb(45,92,45); fill-rule: nonzero; opacity: 1;" vector-effect="non-scaling-stroke"  transform=" translate(-600, -653.32)" d="M 1105.44584 813.64206 Q 1027.31318 802.19841 955.16438 793.91206 L 974.18389 763.13437 C 967.7722600000001 761.24028 939.5991300000001 778.78583 939.5991300000001 778.78583 L 964.5663300000001 689.30573 C 932.3180000000001 692.41246 915.9087000000001 783.8191 915.9087000000001 783.8191 L 879.884 752.72283 L 897.32185 787.5765 C 750.10955 772.38127 622.9711500000001 766.41158 516.03218 765.72302 L 532.311 739.38054 C 525.89936 737.48644 497.72624 755.032 497.72624 755.032 L 522.69344 665.5519 C 490.4451 668.65862 474.03581 760.06527 474.03581 760.06527 L 438.01107 728.969 L 456.48052 765.88475 C 366.82952 766.9714 293.71983 771.7564600000001 237.28964000000002 777.3358900000001 C 253.75706000000002 736.2579400000001 309.68329 697.37575 309.68329 697.37575 C 266.97558 707.81196 244.57129 725.52745 232.86329 742.08586 C 231.96834 691.2683400000001 237.98888 597.08601 282.71876 492.99133000000006 C 282.71876 492.99133000000006 194.42321999999996 653.40002 205.67091 761.3991900000001 L 207.01532 780.5737100000001 C 132.17909 789.1985500000001 94.55412 798.3579300000001 94.55412 798.3579300000001 Z" stroke-linecap="round" />
</g>
<g transform="matrix(0.81 0 0 0.77 162.61 444.75)" id="NcekAG3cTrEiz-M2Nf0uh"  >
<path style="stroke: none; stroke-width: 1; stroke-dasharray: none; stroke-linecap: butt; stroke-dashoffset: 0; stroke-linejoin: miter; stroke-miterlimit: 4; fill: rgb(230,230,230); fill-rule: nonzero; opacity: 1;" vector-effect="non-scaling-stroke"  transform=" translate(-414.7, -541.79)" d="M 411.75189 548.14021 L 413.9493 548.82452 C 415.32801 544.38068 416.57577 539.82844 417.65673 535.29303 L 415.41745 534.7634400000001 C 414.34645 539.24986 413.12052 543.74533 411.75189 548.14021 Z" stroke-linecap="round" />
</g>
<g transform="matrix(0.81 0 0 0.77 212.58 449.18)" id="c_wj3vak6dcuGlzZKVibl"  >
<path style="stroke: none; stroke-width: 1; stroke-dasharray: none; stroke-linecap: butt; stroke-dashoffset: 0; stroke-linejoin: miter; stroke-miterlimit: 4; fill: rgb(42,74,41); fill-rule: nonzero; opacity: 1;" vector-effect="non-scaling-stroke"  transform=" translate(-496.68, -764.36)" d="M 484.72385 792.35794 C 484.72385 792.35794 471.72385 760.35794 510.72385 736.35794 Z" stroke-linecap="round" />
</g>
<g transform="matrix(0.81 0 0 0.77 168.55 457.72)" id="iMpEOFz42XnJsiwPZnrQI"  >
<path style="stroke: none; stroke-width: 1; stroke-dasharray: none; stroke-linecap: butt; stroke-dashoffset: 0; stroke-linejoin: miter; stroke-miterlimit: 4; fill: rgb(45,161,45); fill-rule: nonzero; opacity: 1;" vector-effect="non-scaling-stroke"  transform=" translate(-442.88, -774.91)" d="M 468.73587 791.77747 C 468.73587 791.77747 462.81944999999996 757.74813 417.02736999999996 758.03979 Z" stroke-linecap="round" />
</g>
<g transform="matrix(0.81 0 0 0.77 200.64 444.75)" id="NK0i2y7f-nj-LKQKCQnkN"  >
<path style="stroke: none; stroke-width: 1; stroke-dasharray: none; stroke-linecap: butt; stroke-dashoffset: 0; stroke-linejoin: miter; stroke-miterlimit: 4; fill: rgb(42,74,41); fill-rule: nonzero; opacity: 1;" vector-effect="non-scaling-stroke"  transform=" translate(-496.68, -764.36)" d="M 484.72385 792.35794 C 484.72385 792.35794 471.72385 760.35794 510.72385 736.35794 Z" stroke-linecap="round" />
</g>
<g transform="matrix(0.81 0 0 0.77 181.11 452.29)" id="URuvyFVGQ_gr6kqmkiIO6"  >
<path style="stroke: none; stroke-width: 1; stroke-dasharray: none; stroke-linecap: butt; stroke-dashoffset: 0; stroke-linejoin: miter; stroke-miterlimit: 4; fill: rgb(45,161,45); fill-rule: nonzero; opacity: 1;" vector-effect="non-scaling-stroke"  transform=" translate(-442.88, -774.91)" d="M 468.73587 791.77747 C 468.73587 791.77747 462.81944999999996 757.74813 417.02736999999996 758.03979 Z" stroke-linecap="round" />
</g>
<g transform="matrix(-0.98 0 0 0.98 580.99 222.29)" id="WYsM9yVOtMf3FDd7weiO6"  >
<g style="" vector-effect="non-scaling-stroke"   >
		<g transform="matrix(3.02 0 0 2.87 0 0)" id="WihYwtNk1n49k4kkFBUKv"  >
<path style="stroke: none; stroke-width: 1; stroke-dasharray: none; stroke-linecap: butt; stroke-dashoffset: 0; stroke-linejoin: miter; stroke-miterlimit: 4; fill: rgb(0,0,0); fill-rule: nonzero; opacity: 1;" vector-effect="non-scaling-stroke"  transform=" translate(-40, -39.95)" d="M 69.1 5.4 L 25.3 5.4 C 19.3 5.4 14.4 10.3 14.4 16.3 L 14.4 16.7 L 10.9 16.7 C 4.9 16.7 0 21.6 0 27.6 L 0 50.2 C 0 55.400000000000006 3.6 59.7 8.4 60.800000000000004 L 8.4 71.2 C 8.4 73 8.5 74 9.4 74.4 C 10.6 74.9 12.3 73.4 12.600000000000001 73.2 L 27 61.2 L 47.3 61.2 C 52.099999999999994 61.2 56.199999999999996 58.1 57.599999999999994 53.800000000000004 L 67.39999999999999 62 C 67.69999999999999 62.2 69.3 63.7 70.6 63.2 C 71.5 62.800000000000004 71.6 61.800000000000004 71.6 60 L 71.6 49.6 C 76.4 48.5 80 44.1 80 39 L 80 16.4 C 80 10.3 75.1 5.4 69.1 5.4 z" stroke-linecap="round" />
</g>
		<g transform="matrix(3.02 0 0 2.87 -32.77 11.19)" id="vXDixzM1BoFzBQj8i7Duc"  >
<path style="stroke: none; stroke-width: 1; stroke-dasharray: none; stroke-linecap: butt; stroke-dashoffset: 0; stroke-linejoin: miter; stroke-miterlimit: 4; fill: rgb(255,255,255); fill-rule: nonzero; opacity: 1;" vector-effect="non-scaling-stroke"  transform=" translate(-29.15, -43.85)" d="M 53.2 49.9 L 53.2 49.9 L 53.2 50.3 C 53.2 53.5 50.6 56.199999999999996 47.300000000000004 56.199999999999996 L 26.1 56.199999999999996 C 25.5 56.199999999999996 24.900000000000002 56.4 24.5 56.8 L 13.5 66 L 13.5 58.7 C 13.5 57.300000000000004 12.4 56.2 11 56.2 C 7.8 56.2 5.1 53.6 5.1 50.300000000000004 L 5.1 27.6 C 5.1 24.400000000000002 7.699999999999999 21.700000000000003 11 21.700000000000003 L 14.5 21.700000000000003 L 14.5 39 C 14.5 45 19.4 49.9 25.4 49.9 L 53.2 49.9 z" stroke-linecap="round" />
</g>
		<g transform="matrix(3.02 0 0 2.87 21.6 -21.1)" id="8ElajtIkYBxY0nCEDO0px"  >
<path style="stroke: none; stroke-width: 1; stroke-dasharray: none; stroke-linecap: butt; stroke-dashoffset: 0; stroke-linejoin: miter; stroke-miterlimit: 4; fill: rgb(255,255,255); fill-rule: nonzero; opacity: 1;" vector-effect="non-scaling-stroke"  transform=" translate(-47.15, -32.6)" d="M 69.1 10.5 L 25.3 10.5 C 22.1 10.5 19.4 13.1 19.4 16.4 L 19.4 39 C 19.4 42.2 22 44.9 25.299999999999997 44.9 L 53.9 44.9 C 54.5 44.9 55.1 45.1 55.5 45.5 L 66.5 54.7 L 66.5 47.400000000000006 C 66.5 46.00000000000001 67.6 44.900000000000006 69 44.900000000000006 C 72.2 44.900000000000006 74.9 42.300000000000004 74.9 39.00000000000001 L 74.9 16.4 L 74.9 16.4 C 75 13.1 72.3 10.5 69.1 10.5 z" stroke-linecap="round" />
</g>
</g>
</g>
</svg>