<?xml version="1.0" encoding="UTF-8" standalone="no" ?>
<svg xmlns="http://www.w3.org/2000/svg" xmlns:xlink="http://www.w3.org/1999/xlink" version="1.1" width="640" height="640" viewBox="0 0 640 640" xml:space="preserve">
<g transform="matrix(1.28 0 0 1.28 319.21 298.23)" id="dQa6s-nqzGnLTjNTblENF"  >
<g style="" vector-effect="non-scaling-stroke"   >
		<g transform="matrix(1 0 0 1 0 0)" id="LzSWTmlhQqehN2KquisRp"  >
<path style="stroke: rgb(0,0,0); stroke-width: 1; stroke-dasharray: none; stroke-linecap: round; stroke-dashoffset: 6; stroke-linejoin: round; stroke-miterlimit: 1; fill: rgb(0,0,0); fill-rule: nonzero; opacity: 1;" vector-effect="non-scaling-stroke"  transform=" translate(0, 0.36)" d="M -180.323 -114.594 C -180.323 -114.594 -201.041 -120.571 -204.52 -154.484 C -207.998 -188.397 -192.671 -203.289 -192.671 -203.289 C -192.671 -203.289 -165.866 -229.485 -140.323 -225.029 C -114.78 -220.573 -106.667 -221.174 -90.063 -199.811 C -73.459 -178.448 -79.628 -175.724 -51.802 -168.768 C -23.976 -161.811 8.057 -163.946 8.057 -163.946 L 40.98 -168.279 C 40.98 -168.279 61.211 -168.706 76.863 -179.649 C 92.515 -190.592 82.285 -183.289 99.677 -204.159 C 117.068 -225.029 143.741 -225.463 143.741 -225.463 C 143.741 -225.463 165.915 -233.616 193.741 -206.66 C 221.567 -179.703 202.981 -142.42 196.024 -133.724 C 189.068 -125.029 179.677 -118.072 179.677 -118.072 C 179.677 -118.072 202.981 -103.289 206.459 -84.159 C 209.937 -65.029 167.329 29.754 170.807 38.45 C 174.285 47.145 176.185 39.032 188.198 31.232 C 200.212 23.433 224.894 22.537 239.677 51.232 C 254.459 79.928 189.068 131.232 189.068 131.232 C 189.068 131.232 149.242 171.493 199.677 167.145 C 250.111 162.798 239.677 204.537 239.677 204.537 C 239.677 204.537 228.372 232.363 199.677 218.45 C 170.981 204.537 128.198 200.189 128.198 200.189 C 128.198 200.189 60.372 213.232 53.416 217.58 C 46.459 221.928 -2.236 229.754 -36.15 223.667 C -70.063 217.58 -64.845 211.493 -104.845 205.406 C -144.845 199.319 -177.715 211.232 -180.323 211.232 C -182.932 211.232 -223.106 237.319 -234.41 211.232 C -245.715 185.145 -238.758 179.058 -230.932 171.232 C -223.106 163.406 -201.367 178.45 -185.715 164.537 C -170.063 150.624 -168.323 153.841 -191.802 131.232 C -215.28 108.624 -231.628 92.102 -240.323 71.232 C -249.019 50.363 -218.584 24.276 -200.323 31.232 C -182.063 38.189 -183.326 34.101 -167.454 40.189 C -151.582 46.277 -199.628 -39.202 -204.845 -68.768 C -210.063 -98.333 -180.323 -114.594 -180.323 -114.594 Z" stroke-linecap="round" />
</g>
		<g transform="matrix(1 0 0 1 150.54 -167.04)" id="IPtgkC9FILQw4jmbajqsE"  >
<path style="stroke: rgb(0,0,0); stroke-width: 1; stroke-dasharray: none; stroke-linecap: butt; stroke-dashoffset: 0; stroke-linejoin: miter; stroke-miterlimit: 4; fill: rgb(255,255,255); fill-rule: nonzero; opacity: 1;" vector-effect="non-scaling-stroke"  transform=" translate(-42.61, -42.61)" d="M 42.60869 0 C 66.12869 0 85.21738 19.08869 85.21738 42.60869 C 85.21738 66.12869 66.12869 85.21738 42.60869 85.21738 C 19.088690000000003 85.21738 0 66.12869 0 42.60869 C 0 19.088690000000003 19.08869 0 42.60869 0 z" stroke-linecap="round" />
</g>
		<g transform="matrix(1 0 0 1 -148.39 -165.52)" id="z1URjcf3-wvrNS0g8MIcd"  >
<path style="stroke: rgb(0,0,0); stroke-width: 1; stroke-dasharray: none; stroke-linecap: butt; stroke-dashoffset: 0; stroke-linejoin: miter; stroke-miterlimit: 4; fill: rgb(255,255,255); fill-rule: nonzero; opacity: 1;" vector-effect="non-scaling-stroke"  transform=" translate(-42.61, -42.61)" d="M 42.60869 0 C 66.12869 0 85.21738 19.08869 85.21738 42.60869 C 85.21738 66.12869 66.12869 85.21738 42.60869 85.21738 C 19.088690000000003 85.21738 0 66.12869 0 42.60869 C 0 19.088690000000003 19.08869 0 42.60869 0 z" stroke-linecap="round" />
</g>
		<g transform="matrix(0.47 0 0 0.47 -148.14 -168.27)" id="S15a9y3YFdwlJed9ZWpyu"  >
<path style="stroke: rgb(0,0,0); stroke-width: 1; stroke-dasharray: none; stroke-linecap: butt; stroke-dashoffset: 0; stroke-linejoin: miter; stroke-miterlimit: 4; fill: rgb(0,0,0); fill-rule: nonzero; opacity: 1;" vector-effect="non-scaling-stroke"  transform=" translate(0, 0)" d="M 0 -42.60869 C 23.52 -42.60869 42.60869 -23.520000000000003 42.60869 0 C 42.60869 23.52 23.520000000000003 42.60869 0 42.60869 C -23.52 42.60869 -42.60869 23.520000000000003 -42.60869 0 C -42.60869 -23.52 -23.520000000000003 -42.60869 0 -42.60869 z" stroke-linecap="round" />
</g>
		<g transform="matrix(0.47 0 0 0.47 151.86 -168.27)" id="QWTdsH4Y3V9PMVTz-1mR5"  >
<path style="stroke: rgb(0,0,0); stroke-width: 1; stroke-dasharray: none; stroke-linecap: butt; stroke-dashoffset: 0; stroke-linejoin: miter; stroke-miterlimit: 4; fill: rgb(0,0,0); fill-rule: nonzero; opacity: 1;" vector-effect="non-scaling-stroke"  transform=" translate(0, 0)" d="M 0 -42.60869 C 23.52 -42.60869 42.60869 -23.520000000000003 42.60869 0 C 42.60869 23.52 23.520000000000003 42.60869 0 42.60869 C -23.52 42.60869 -42.60869 23.520000000000003 -42.60869 0 C -42.60869 -23.52 -23.520000000000003 -42.60869 0 -42.60869 z" stroke-linecap="round" />
</g>
		<g transform="matrix(1 0 0 1 0.06 27.63)" id="4kP_q7nnMuy2zK8TbmzZI"  >
<path style="stroke: rgb(0,0,0); stroke-width: 1; stroke-dasharray: none; stroke-linecap: butt; stroke-dashoffset: 0; stroke-linejoin: miter; stroke-miterlimit: 4; fill: rgb(255,255,255); fill-rule: nonzero; opacity: 1;" vector-effect="non-scaling-stroke"  transform=" translate(-0.41, 0.51)" d="M 6.405 -170.019 C 52.088 -171.192 53.176 -173.864 71.417 -168.361 C 89.658 -162.858 110.194 -143.638 110.194 -143.638 C 110.194 -143.638 135.789 -123.263 158.397 -120.654 C 181.006 -118.045 159.125 -57.014 159.125 -57.014 L 87.647 136.29 C 87.647 136.29 60.864 175.421 -0.875 170.203 C -62.614 164.986 -88.005 152.812 -95.831 116.29 C -103.657 79.768 -154.962 -49.797 -154.962 -49.797 C -154.962 -49.797 -167.136 -83.71 -166.266 -83.71 C -165.397 -83.71 -173.95 -100.876 -158.258 -115.194 C -142.566 -129.512 -133.679 -115.103 -107.464 -139.081 C -81.249 -163.059 -65.662 -166.01 -63.818 -166.725 C -60.693 -167.937 -39.278 -168.846 6.405 -170.019 Z" stroke-linecap="round" />
</g>
</g>
</g>
</svg>